<?xml version="1.0" encoding="UTF-8"?>
<svg data-bbox="0 0 258.24 52.06" viewBox="0 0 258.23 52.06" xmlns="http://www.w3.org/2000/svg" data-type="color">
    <g>
        <path d="M16.8 1.94v18.9h-3.51v-8.1H3.51v8.1H0V1.94h3.51v7.81h9.78V1.94h3.51Z" fill="#7d1e57" data-color="1"/>
        <path d="M24.18 20.09c-1.17-.63-2.08-1.51-2.74-2.63s-.99-2.4-.99-3.82.33-2.69.99-3.81 1.57-1.99 2.74-2.62c1.17-.63 2.48-.95 3.94-.95s2.8.32 3.97.95c1.17.63 2.08 1.5 2.74 2.62.66 1.12.99 2.39.99 3.81s-.33 2.7-.99 3.82c-.66 1.13-1.57 2-2.74 2.63-1.17.63-2.49.95-3.97.95s-2.77-.31-3.94-.95Zm7.02-3.19c.81-.83 1.22-1.92 1.22-3.27s-.4-2.44-1.22-3.27c-.81-.83-1.84-1.24-3.08-1.24s-2.26.41-3.06 1.24-1.2 1.92-1.2 3.27.4 2.44 1.2 3.27c.8.83 1.82 1.24 3.06 1.24s2.27-.41 3.08-1.24Z" fill="#7d1e57" data-color="1"/>
        <path d="m61.36 6.43-5.32 14.42H52.8l-3.73-9.94-3.78 9.94h-3.24L36.76 6.43h3.19l3.81 10.64 3.97-10.64h2.84l3.89 10.69 3.92-10.69h3Z" fill="#7d1e57" data-color="1"/>
        <path d="M74.19 7.79c1.12 1.02 1.69 2.55 1.69 4.6v8.45h-3.19v-1.75c-.41.63-1 1.11-1.77 1.44s-1.69.5-2.77.5-2.03-.18-2.83-.55c-.81-.37-1.44-.88-1.88-1.54-.44-.66-.66-1.4-.66-2.23 0-1.3.48-2.34 1.45-3.12.96-.78 2.48-1.18 4.55-1.18h3.73v-.21c0-1.01-.3-1.78-.91-2.32s-1.5-.81-2.69-.81c-.81 0-1.61.13-2.39.38s-1.45.6-1.99 1.05l-1.32-2.46c.76-.58 1.66-1.02 2.73-1.32 1.06-.31 2.19-.46 3.38-.46 2.12 0 3.75.51 4.88 1.53ZM71.11 18c.66-.39 1.12-.94 1.39-1.66v-1.67h-3.48c-1.94 0-2.92.64-2.92 1.92 0 .61.24 1.1.73 1.46.49.36 1.16.54 2.03.54s1.6-.19 2.26-.58Z" fill="#7d1e57" data-color="1"/>
        <path d="M88.47 6.27v3.21c-.29-.05-.55-.08-.78-.08-1.31 0-2.34.38-3.08 1.15-.74.77-1.11 1.87-1.11 3.31v6.99h-3.38V6.43h3.21v2.11c.97-1.51 2.68-2.27 5.13-2.27Z" fill="#7d1e57" data-color="1"/>
        <path d="M105.44.81v20.04h-3.24v-1.86c-.56.68-1.25 1.2-2.07 1.54-.82.34-1.72.51-2.71.51-1.39 0-2.63-.31-3.74-.92-1.11-.61-1.98-1.48-2.61-2.61s-.95-2.42-.95-3.88.32-2.75.95-3.86 1.5-1.98 2.61-2.59c1.11-.61 2.35-.92 3.74-.92.95 0 1.83.16 2.62.49s1.47.81 2.03 1.46V.81h3.38Zm-5.43 16.78c.65-.37 1.16-.9 1.54-1.58.38-.68.57-1.48.57-2.38s-.19-1.69-.57-2.38c-.38-.68-.89-1.21-1.54-1.58-.65-.37-1.38-.55-2.19-.55s-1.54.18-2.19.55c-.65.37-1.16.9-1.54 1.58-.38.68-.57 1.48-.57 2.38s.19 1.69.57 2.38c.38.68.89 1.21 1.54 1.58.65.37 1.38.55 2.19.55s1.54-.18 2.19-.55Z" fill="#7d1e57" data-color="1"/>
        <path d="M135.82 1.94h8.26c2.02 0 3.81.39 5.37 1.18s2.78 1.89 3.65 3.32c.86 1.43 1.3 3.08 1.3 4.96s-.43 3.53-1.3 4.96c-.86 1.43-2.08 2.54-3.65 3.32s-3.36 1.17-5.37 1.17h-8.26V1.94Zm8.1 15.93c1.39 0 2.61-.27 3.66-.8a5.737 5.737 0 0 0 2.43-2.27c.57-.98.85-2.12.85-3.42s-.28-2.44-.85-3.42a5.737 5.737 0 0 0-2.43-2.27c-1.05-.53-2.27-.8-3.66-.8h-4.59v12.96h4.59Z" fill="#7d1e57" data-color="1"/>
        <path d="M171.61 14.72h-11.32c.2 1.06.72 1.9 1.55 2.53s1.88.93 3.12.93c1.58 0 2.89-.52 3.92-1.57l1.81 2.08c-.65.77-1.47 1.36-2.46 1.76-.99.4-2.11.59-3.35.59-1.59 0-2.98-.31-4.19-.95-1.21-.63-2.14-1.51-2.8-2.63s-.99-2.4-.99-3.82.32-2.67.96-3.79c.64-1.13 1.53-2 2.66-2.63 1.13-.63 2.41-.95 3.84-.95s2.66.31 3.77.93c1.11.62 1.97 1.49 2.59 2.62.62 1.13.93 2.43.93 3.9 0 .23-.02.57-.05 1Zm-9.98-4.79c-.75.64-1.2 1.49-1.36 2.55h8.18c-.14-1.04-.58-1.89-1.32-2.54-.74-.65-1.66-.97-2.75-.97s-2 .32-2.74.96Z" fill="#7d1e57" data-color="1"/>
        <path d="M174.97.81h3.38v20.04h-3.38V.81Z" fill="#7d1e57" data-color="1"/>
        <path d="M193.23 7.79c1.12 1.02 1.69 2.55 1.69 4.6v8.45h-3.19v-1.75c-.41.63-1 1.11-1.77 1.44s-1.69.5-2.77.5-2.03-.18-2.83-.55c-.81-.37-1.44-.88-1.88-1.54-.44-.66-.66-1.4-.66-2.23 0-1.3.48-2.34 1.45-3.12.96-.78 2.48-1.18 4.55-1.18h3.73v-.21c0-1.01-.3-1.78-.91-2.32s-1.5-.81-2.69-.81c-.81 0-1.61.13-2.39.38s-1.45.6-1.99 1.05l-1.32-2.46c.76-.58 1.66-1.02 2.73-1.32 1.06-.31 2.19-.46 3.38-.46 2.12 0 3.75.51 4.88 1.53ZM190.15 18c.66-.39 1.12-.94 1.39-1.66v-1.67h-3.48c-1.94 0-2.92.64-2.92 1.92 0 .61.24 1.1.73 1.46.49.36 1.16.54 2.03.54s1.6-.19 2.26-.58Z" fill="#7d1e57" data-color="1"/>
        <path d="M202.98 5.67v.86h3.97v2.7h-3.86v11.61h-3.38V9.23h-2.38v-2.7h2.38v-.92c0-1.55.45-2.77 1.35-3.66s2.17-1.34 3.81-1.34c1.3 0 2.31.26 3.05.78l-.94 2.54c-.58-.4-1.2-.59-1.86-.59-1.42 0-2.13.77-2.13 2.32Zm8.56-2.2c-.41-.39-.62-.87-.62-1.44s.21-1.06.62-1.45c.41-.39.93-.58 1.54-.58s1.13.18 1.54.55.62.83.62 1.39c0 .59-.2 1.09-.61 1.5-.4.41-.92.61-1.55.61s-1.13-.19-1.54-.58Zm-.16 2.96h3.38v14.42h-3.38V6.43Z" fill="#7d1e57" data-color="1"/>
        <path d="M232.79 14.72h-11.32c.2 1.06.72 1.9 1.55 2.53s1.88.93 3.12.93c1.58 0 2.89-.52 3.92-1.57l1.81 2.08c-.65.77-1.47 1.36-2.46 1.76-.99.4-2.11.59-3.35.59-1.59 0-2.98-.31-4.19-.95-1.21-.63-2.14-1.51-2.8-2.63s-.99-2.4-.99-3.82.32-2.67.96-3.79c.64-1.13 1.53-2 2.66-2.63 1.13-.63 2.41-.95 3.84-.95s2.66.31 3.77.93c1.11.62 1.97 1.49 2.59 2.62.62 1.13.93 2.43.93 3.9 0 .23-.02.57-.05 1Zm-9.98-4.79c-.75.64-1.2 1.49-1.36 2.55h8.18c-.14-1.04-.58-1.89-1.32-2.54-.74-.65-1.66-.97-2.75-.97s-2 .32-2.74.96Z" fill="#7d1e57" data-color="1"/>
        <path d="M236.15.81h3.38v20.04h-3.38V.81Z" fill="#7d1e57" data-color="1"/>
        <path d="M258.23.81v20.04h-3.24v-1.86c-.56.68-1.25 1.2-2.07 1.54-.82.34-1.72.51-2.71.51-1.39 0-2.63-.31-3.74-.92-1.11-.61-1.98-1.48-2.61-2.61s-.95-2.42-.95-3.88.32-2.75.95-3.86 1.5-1.98 2.61-2.59c1.11-.61 2.35-.92 3.74-.92.95 0 1.83.16 2.62.49s1.47.81 2.03 1.46V.81h3.38Zm-5.43 16.78c.65-.37 1.16-.9 1.54-1.58.38-.68.57-1.48.57-2.38s-.19-1.69-.57-2.38c-.38-.68-.89-1.21-1.54-1.58-.65-.37-1.38-.55-2.19-.55s-1.54.18-2.19.55c-.65.37-1.16.9-1.54 1.58-.38.68-.57 1.48-.57 2.38s.19 1.69.57 2.38c.38.68.89 1.21 1.54 1.58.65.37 1.38.55 2.19.55s1.54-.18 2.19-.55Z" fill="#7d1e57" data-color="1"/>
        <path d="M0 32.96h3.51v18.9H0v-18.9Z" fill="#7d1e57" data-color="1"/>
        <path d="M20.75 38.88c1.1 1.06 1.65 2.64 1.65 4.73v8.26h-3.38v-7.83c0-1.26-.3-2.21-.89-2.85-.59-.64-1.44-.96-2.54-.96-1.24 0-2.22.37-2.94 1.12-.72.75-1.08 1.82-1.08 3.23v7.29H8.19V37.45h3.21v1.86c.56-.67 1.26-1.17 2.11-1.51.85-.34 1.8-.51 2.86-.51 1.82 0 3.28.53 4.37 1.59Z" fill="#7d1e57" data-color="1"/>
        <path d="M35.12 51.09c-.4.32-.88.57-1.44.73s-1.17.24-1.8.24c-1.59 0-2.81-.41-3.67-1.24-.86-.83-1.3-2.03-1.3-3.62v-6.94h-2.38v-2.7h2.38v-3.29h3.38v3.29h3.86v2.7h-3.86v6.86c0 .7.17 1.24.51 1.61.34.37.84.55 1.49.55.76 0 1.39-.2 1.89-.59l.94 2.4Z" fill="#7d1e57" data-color="1"/>
        <path d="M50.98 45.74H39.66c.2 1.06.72 1.9 1.55 2.53s1.88.93 3.12.93c1.58 0 2.89-.52 3.92-1.57l1.81 2.08c-.65.77-1.47 1.36-2.46 1.76-.99.4-2.11.59-3.35.59-1.59 0-2.98-.31-4.19-.95-1.21-.63-2.14-1.51-2.8-2.63s-.99-2.4-.99-3.82.32-2.67.96-3.79c.64-1.13 1.53-2 2.66-2.63 1.13-.63 2.41-.95 3.84-.95s2.66.31 3.77.93c1.11.62 1.97 1.49 2.59 2.62.62 1.13.93 2.43.93 3.9 0 .23-.02.57-.05 1ZM41 40.95c-.75.64-1.2 1.49-1.36 2.55h8.18c-.14-1.04-.58-1.89-1.32-2.54-.74-.65-1.66-.97-2.75-.97s-2 .32-2.74.96Z" fill="#7d1e57" data-color="1"/>
        <path d="M62.64 37.28v3.21c-.29-.05-.55-.08-.78-.08-1.31 0-2.34.38-3.08 1.15-.74.77-1.11 1.87-1.11 3.31v6.99h-3.38V37.44h3.21v2.11c.97-1.51 2.68-2.27 5.13-2.27Z" fill="#7d1e57" data-color="1"/>
        <path d="M77.91 38.88c1.1 1.06 1.65 2.64 1.65 4.73v8.26h-3.38v-7.83c0-1.26-.3-2.21-.89-2.85-.59-.64-1.44-.96-2.54-.96-1.24 0-2.22.37-2.94 1.12-.72.75-1.08 1.82-1.08 3.23v7.29h-3.38V37.45h3.21v1.86c.56-.67 1.26-1.17 2.11-1.51.85-.34 1.8-.51 2.86-.51 1.82 0 3.28.53 4.37 1.59Z" fill="#7d1e57" data-color="1"/>
        <path d="M94.19 38.81c1.12 1.02 1.69 2.55 1.69 4.6v8.45h-3.19v-1.75c-.41.63-1 1.11-1.77 1.44s-1.69.5-2.77.5-2.03-.18-2.83-.55c-.81-.37-1.44-.88-1.88-1.54-.44-.66-.66-1.4-.66-2.23 0-1.3.48-2.34 1.45-3.12.96-.78 2.48-1.18 4.55-1.18h3.73v-.21c0-1.01-.3-1.78-.91-2.32s-1.5-.81-2.69-.81c-.81 0-1.61.13-2.39.38s-1.45.6-1.99 1.05l-1.32-2.46c.76-.58 1.66-1.02 2.73-1.32 1.06-.31 2.19-.46 3.38-.46 2.12 0 3.75.51 4.88 1.53Zm-3.08 10.21c.66-.39 1.12-.94 1.39-1.66v-1.67h-3.48c-1.94 0-2.92.64-2.92 1.92 0 .61.24 1.1.73 1.46.49.36 1.16.54 2.03.54s1.6-.19 2.26-.58Z" fill="#7d1e57" data-color="1"/>
        <path d="M108.65 51.09c-.4.32-.88.57-1.44.73s-1.17.24-1.8.24c-1.59 0-2.81-.41-3.67-1.24-.86-.83-1.3-2.03-1.3-3.62v-6.94h-2.38v-2.7h2.38v-3.29h3.38v3.29h3.86v2.7h-3.86v6.86c0 .7.17 1.24.51 1.61.34.37.84.55 1.49.55.76 0 1.39-.2 1.89-.59l.94 2.4Z" fill="#7d1e57" data-color="1"/>
        <path d="M111.41 34.49c-.41-.39-.62-.87-.62-1.44s.21-1.06.62-1.45c.41-.39.93-.58 1.54-.58s1.13.18 1.54.55c.41.37.62.83.62 1.39 0 .59-.2 1.09-.61 1.5-.4.41-.92.61-1.55.61s-1.13-.19-1.54-.58Zm-.16 2.96h3.38v14.42h-3.38V37.45Z" fill="#7d1e57" data-color="1"/>
        <path d="M121.64 51.11c-1.17-.63-2.08-1.51-2.74-2.63s-.99-2.4-.99-3.82.33-2.69.99-3.81 1.57-1.99 2.74-2.62c1.17-.63 2.48-.95 3.94-.95s2.8.32 3.97.95c1.17.63 2.08 1.5 2.74 2.62.66 1.12.99 2.39.99 3.81s-.33 2.7-.99 3.82c-.66 1.13-1.57 2-2.74 2.63-1.17.63-2.49.95-3.97.95s-2.77-.31-3.94-.95Zm7.02-3.19c.81-.83 1.22-1.92 1.22-3.27s-.4-2.44-1.22-3.27c-.81-.83-1.84-1.24-3.08-1.24s-2.26.41-3.06 1.24-1.2 1.92-1.2 3.27.4 2.44 1.2 3.27c.8.83 1.82 1.24 3.06 1.24s2.27-.41 3.08-1.24Z" fill="#7d1e57" data-color="1"/>
        <path d="M149.15 38.88c1.1 1.06 1.65 2.64 1.65 4.73v8.26h-3.38v-7.83c0-1.26-.3-2.21-.89-2.85-.59-.64-1.44-.96-2.54-.96-1.24 0-2.22.37-2.94 1.12-.72.75-1.08 1.82-1.08 3.23v7.29h-3.38V37.45h3.21v1.86c.56-.67 1.26-1.17 2.11-1.51.85-.34 1.8-.51 2.86-.51 1.82 0 3.28.53 4.37 1.59Z" fill="#7d1e57" data-color="1"/>
        <path d="M165.43 38.81c1.12 1.02 1.69 2.55 1.69 4.6v8.45h-3.19v-1.75c-.41.63-1 1.11-1.77 1.44s-1.69.5-2.77.5-2.03-.18-2.83-.55c-.81-.37-1.44-.88-1.88-1.54-.44-.66-.66-1.4-.66-2.23 0-1.3.48-2.34 1.45-3.12.96-.78 2.48-1.18 4.55-1.18h3.73v-.21c0-1.01-.3-1.78-.91-2.32s-1.5-.81-2.69-.81c-.81 0-1.61.13-2.39.38s-1.45.6-1.99 1.05l-1.32-2.46c.76-.58 1.66-1.02 2.73-1.32 1.06-.31 2.19-.46 3.38-.46 2.12 0 3.75.51 4.88 1.53Zm-3.08 10.21c.66-.39 1.12-.94 1.39-1.66v-1.67h-3.48c-1.94 0-2.92.64-2.92 1.92 0 .61.24 1.1.73 1.46.49.36 1.16.54 2.03.54s1.6-.19 2.26-.58Z" fill="#7d1e57" data-color="1"/>
        <path d="M171.37 31.83h3.38v20.04h-3.38V31.83Z" fill="#7d1e57" data-color="1"/>
        <path d="M131.97 6.39c-.16-.33-.48-.73-.85-1.07-.79-.72-1.73-1.05-2.72-.97-1.48.11-2.87.98-4.64 2.91-1.21 1.32-2.52 2.87-3.79 4.36-1.3 1.53-2.65 3.12-3.92 4.51-1.59 1.74-2.33 2.02-2.73 2.08a.781.781 0 0 1-.64-.18c-.22-.2-.35-.41-.43-.55l-.36-.64-2.12 1.57.15.44c.13.38.53.92.97 1.33.69.63 1.53.96 2.38.96.24 0 .49-.03.72-.08 1.27-.24 2.7-1.22 4.25-2.92 1.28-1.4 2.6-2.96 3.89-4.48 1.24-1.47 2.53-2.99 3.73-4.3 1.3-1.42 2.13-2.08 2.79-2.18.21-.04.45.04.64.21.13.12.26.28.38.45l.37.55 2.13-1.52-.24-.49Z" fill="#7d1e57" data-color="1"/>
    </g>
</svg>
