<?xml version="1.0" encoding="UTF-8"?>
<svg data-bbox="0.01 0 303.16 126.77" viewBox="0 0 303.17 126.77" xmlns="http://www.w3.org/2000/svg" data-type="color">
    <g>
        <path d="M26.47 102.72c0 3.11-.93 5.96-2.8 8.53-1.87 2.58-4.35 4.45-7.43 5.61-1.33.5-2.47.83-3.41.97s-2.56.23-4.85.25c-.7 0-2.36.01-4.98.03H1.16c-.2.04-.43.07-.69.07-.31 0-.46-.1-.46-.29 0-.17.14-.28.43-.33.2-.02.54-.03 1.02-.03 1.01 0 1.64-.1 1.9-.3.24-.28.42-.58.54-.89.12-.31.32-.79.61-1.45l6.62-16.45c.46-1.14.69-1.81.69-2.01 0-.26-.34-.43-1.02-.49l-1.77-.15c-.35 0-.52-.08-.52-.24s.23-.24.69-.24c.33 0 .98.02 1.97.07.5.02 1.18.03 2.03.03h2.23c.48 0 1.03-.03 1.64-.1h1.11c1.97 0 3.57.32 4.82.95 2.32 1.23 3.48 3.38 3.48 6.45Zm-3.25-1.07c0-2.12-.57-3.64-1.71-4.56-.92-.74-2.21-1.12-3.87-1.12-.88 0-1.53.04-1.97.13-.22.04-.47.37-.75.98-.42.87-.71 1.54-.89 2l-6.2 15.68c-.55 1.38-.82 2.11-.82 2.2 0 .33.59.49 1.77.49 4.04 0 7.35-1.42 9.9-4.26 1.4-1.53 2.5-3.33 3.31-5.41s1.21-4.12 1.21-6.13Z" fill="#ffffff" data-color="1"/>
        <path d="M40.5 106.23c0 1.17-.63 2.15-1.9 2.92s-2.88 1.16-4.82 1.16c-.7 0-1.48-.04-2.33-.13-.81 1.68-1.21 3.23-1.21 4.67 0 1.94.86 2.91 2.59 2.91 1.33 0 2.63-.69 3.9-2.07.28-.3.47-.45.56-.45.11 0 .16.05.16.16 0 .5-.51 1.12-1.54 1.85-1.18.84-2.41 1.27-3.67 1.27-1.42 0-2.59-.41-3.51-1.24-.92-.83-1.38-1.88-1.38-3.14 0-2.44 1.33-4.81 4-7.1 2.34-2.01 4.43-3.01 6.26-3.01s2.89.74 2.89 2.22Zm-2.33-.55c0-.68-.34-1.02-1.02-1.02s-1.39.26-2.07.79c-1.22.96-2.35 2.39-3.38 4.3.26.02.56.03.89.03 1.22 0 2.42-.37 3.57-1.11 1.33-.83 2-1.83 2-2.98Z" fill="#ffffff" data-color="1"/>
        <path d="M53.92 106.44c0 1.07-.45 1.61-1.34 1.61-.31 0-.58-.11-.82-.34-.24-.23-.36-.49-.36-.77 0-.52.29-.79.89-.79l.26.03c.15.07.28.11.39.13.17 0 .26-.12.26-.36 0-.35-.21-.66-.64-.93-.43-.27-.9-.41-1.43-.41-1.62 0-3.18 1.2-4.69 3.6-1.55 2.46-2.33 4.77-2.33 6.9 0 1.83.83 2.75 2.49 2.75 1.25 0 2.5-.74 3.77-2.23.22-.26.39-.39.52-.39.11 0 .16.06.16.19 0 .26-.28.67-.85 1.23-1.25 1.23-2.65 1.85-4.2 1.85-1.42 0-2.56-.41-3.43-1.23-.86-.82-1.3-1.9-1.3-3.26 0-2.29 1.22-4.64 3.67-7.04 2.01-1.99 4.09-2.98 6.23-2.98.81 0 1.46.22 1.97.67.5.45.75 1.03.75 1.75Z" fill="#ffffff" data-color="1"/>
        <path d="M70.48 104.21c0 .07-.09.29-.26.69l-4.33 9.79c-.42.94-.62 1.65-.62 2.15 0 .57.28.85.85.85.85 0 1.71-.58 2.56-1.74.17-.24.31-.36.39-.36s.13.04.13.13c0 .24-.24.62-.72 1.15-.96 1.03-2.11 1.54-3.44 1.54-.68 0-1.23-.16-1.66-.49s-.64-.75-.64-1.28c0-.33.08-.71.23-1.15-1.38 2.01-2.97 3.02-4.79 3.02-1.14 0-2.07-.37-2.79-1.1-.72-.73-1.08-1.66-1.08-2.8 0-1.24.42-2.61 1.25-4.09.83-1.48 1.93-2.84 3.31-4.06 1.88-1.66 3.61-2.49 5.18-2.49s2.56.79 2.75 2.36l.82-1.74c.17-.35.33-.52.46-.52.04 0 .17.02.39.07.22.04.37.07.46.07.48 0 .85-.05 1.12-.15.09-.05.16-.08.23-.08.13 0 .2.08.2.23Zm-4.13 2.71c0-.67-.2-1.22-.61-1.63-.4-.41-.92-.62-1.56-.62-1.09 0-2.14.64-3.15 1.93-1.16 1.46-2.09 3-2.79 4.62-.7 1.62-1.05 3.04-1.05 4.26 0 1.48.61 2.22 1.84 2.22.7 0 1.46-.38 2.28-1.14.82-.76 1.5-1.72 2.05-2.87l2.56-5.48c.28-.61.43-1.03.43-1.27Z" fill="#ffffff" data-color="1"/>
        <path d="M91.82 95c-.02.07-.05.14-.1.23-.09.17-.21.43-.36.75l-7.48 18.11c-.57 1.38-.85 2.23-.85 2.55 0 .61.35.92 1.05.92 1.05 0 1.95-.57 2.69-1.71.24-.37.4-.55.49-.55.15 0 .23.09.23.26 0 .37-.37.9-1.11 1.57-.92.83-2.02 1.25-3.31 1.25-1.64 0-2.46-.7-2.46-2.1v-.95c-.8 1.15-1.57 1.96-2.31 2.45-.74.49-1.61.73-2.6.73-1.22 0-2.21-.39-2.98-1.16-.77-.77-1.16-1.78-1.16-3.03 0-2.57 1.22-5.01 3.67-7.3 2.21-2.07 4.32-3.11 6.33-3.11 1.4 0 2.33.67 2.79 2l.2-.4.23-.5 3.74-9.04c.09-.11.13-.21.13-.3 0-.15-.06-.25-.18-.28-.12-.03-.53-.07-1.23-.12-.42-.02-.62-.08-.62-.19s.12-.17.36-.17h2.79c.83 0 1.37-.03 1.61-.09.13-.03.22-.04.26-.04.13 0 .2.07.2.2Zm-7.9 11.57c0-.5-.23-.95-.69-1.34-.46-.39-.97-.59-1.54-.59-1.62 0-3.27 1.35-4.95 4.06-1.6 2.55-2.39 4.71-2.39 6.48 0 1.59.72 2.39 2.16 2.39 1.27 0 2.51-.88 3.74-2.65.87-1.24 1.63-2.69 2.26-4.35l.75-1.93c.44-1.11.66-1.8.66-2.06Z" fill="#ffffff" data-color="1"/>
        <path d="M102.76 106.23c0 1.17-.63 2.15-1.9 2.92s-2.88 1.16-4.82 1.16c-.7 0-1.48-.04-2.33-.13-.81 1.68-1.21 3.23-1.21 4.67 0 1.94.86 2.91 2.59 2.91 1.33 0 2.63-.69 3.9-2.07.28-.3.47-.45.56-.45.11 0 .16.05.16.16 0 .5-.51 1.12-1.54 1.85-1.18.84-2.41 1.27-3.67 1.27-1.42 0-2.59-.41-3.51-1.24-.92-.83-1.38-1.88-1.38-3.14 0-2.44 1.33-4.81 4-7.1 2.34-2.01 4.43-3.01 6.26-3.01s2.89.74 2.89 2.22Zm-2.33-.55c0-.68-.34-1.02-1.02-1.02s-1.39.26-2.07.79c-1.22.96-2.35 2.39-3.38 4.3.26.02.56.03.89.03 1.22 0 2.42-.37 3.57-1.11 1.33-.83 2-1.83 2-2.98Z" fill="#ffffff" data-color="1"/>
        <path d="M115.43 106.51c0 .37-.12.69-.36.95s-.52.39-.85.39c-.66 0-.98-.32-.98-.95 0-.52.22-.79.66-.79.07 0 .17.03.31.1.14.07.26.1.34.1.13 0 .2-.07.2-.23 0-.36-.25-.72-.75-1.06-.5-.34-1.02-.52-1.54-.52-.7 0-1.29.22-1.77.67-.48.45-.72.99-.72 1.62 0 .55.51 2.06 1.54 4.55.24.59.36 1.25.36 2 0 1.48-.5 2.73-1.51 3.73s-2.26 1.5-3.77 1.5c-1.31 0-2.41-.37-3.3-1.1-.89-.73-1.33-1.63-1.33-2.71 0-.61.18-1.11.54-1.51s.81-.59 1.36-.59c.42 0 .77.14 1.07.43.3.28.44.62.44 1.02 0 .66-.32.98-.95.98-.68 0-1.02-.23-1.02-.69 0-.15.03-.31.08-.46.05-.15.08-.24.08-.26 0-.22-.09-.33-.26-.33-.2 0-.38.15-.54.44a2 2 0 0 0-.25.97c0 .85.36 1.6 1.07 2.23.71.63 1.55.95 2.52.95.9 0 1.65-.27 2.26-.82.6-.55.91-1.23.91-2.07 0-.59-.23-1.55-.71-2.89-.45-1.27-.67-2.32-.67-3.15 0-1.42.43-2.62 1.3-3.59.86-.97 1.92-1.46 3.17-1.46.83 0 1.55.25 2.16.75.61.5.92 1.09.92 1.77Z" fill="#ffffff" data-color="1"/>
        <path d="M137.54 109.29c0 2.56-1.17 4.86-3.51 6.92-1.84 1.62-3.75 2.43-5.74 2.43-1.36 0-2.47-.47-3.34-1.41-.88-.94-1.31-2.15-1.31-3.64 0-1.27.36-2.57 1.08-3.9.72-1.33 1.68-2.47 2.89-3.41 1.88-1.46 3.69-2.2 5.44-2.2 1.33 0 2.42.48 3.25 1.44.83.96 1.25 2.22 1.25 3.77Zm-2.52-2.13c0-1.66-.74-2.49-2.23-2.49-1.81 0-3.39 1.3-4.72 3.9-1.27 2.49-1.9 4.83-1.9 7.02 0 1.64.73 2.46 2.2 2.46 1.84 0 3.37-1.18 4.59-3.54 1.38-2.67 2.07-5.12 2.07-7.35Z" fill="#ffffff" data-color="1"/>
        <path d="M155.61 97.03c0 .85-.4 1.28-1.21 1.28-.28 0-.53-.09-.74-.28-.21-.19-.31-.4-.31-.64 0-.17.14-.43.43-.75.09-.17.13-.32.13-.43 0-.55-.46-.82-1.38-.82s-1.74.41-2.33 1.23c-.59.82-1.33 2.48-2.23 4.98l-.89 2.48h3.8c.24 0 .36.11.36.34s-.15.34-.46.34h-3.84l-2.85 7.81c-2.06 5.62-4.06 9.54-6 11.77-.79.9-1.51 1.52-2.18 1.89s-1.46.54-2.38.54c-1.86 0-2.79-.62-2.79-1.87 0-.9.48-1.34 1.44-1.34.66 0 .98.28.98.83 0 .18-.11.41-.33.7-.13.15-.2.3-.2.43 0 .49.33.73.98.73 1.14 0 2.11-.55 2.92-1.65.63-.88 1.47-2.78 2.49-5.7l4.95-14.13h-2.39c-.18.09-.37.13-.59.13-.26 0-.39-.08-.39-.25 0-.32.27-.5.82-.57h2.82c1.31-3.12 2.38-5.24 3.21-6.37 1.38-1.85 3.12-2.78 5.21-2.78.87 0 1.58.19 2.12.57.54.38.8.89.8 1.52Z" fill="#ffffff" data-color="1"/>
        <path d="M172.45 95.6c0 .19-.13.28-.39.28h-.85c-.94 0-1.52.18-1.74.52-.33.5-.81 1.56-1.44 3.18l-6.59 16.89c-.04.13-.1.28-.16.46 0 .39.44.65 1.31.75.28 0 .62.01 1.02.03.28.02.43.1.43.23 0 .15-.15.23-.46.23-1.57-.02-3.84-.03-6.79-.03-1.03 0-1.62-.01-1.79-.03s-.25-.09-.25-.2c0-.15.29-.23.89-.23.81-.02 1.34-.08 1.61-.16.42-.15.72-.39.92-.72.2-.48.43-1.05.69-1.7l6.4-16.05c.63-1.59.95-2.47.95-2.62 0-.37-.34-.56-1.02-.56h-1.31c-.24 0-.36-.09-.36-.28 0-.16.12-.25.36-.25h8.3c.2 0 .3.08.3.25Z" fill="#ffffff" data-color="1"/>
        <path d="M182.93 106.55c0 .53-.28 1.44-.85 2.74l-2.66 6.03c-.31.7-.46 1.18-.46 1.42 0 .46.26.69.77.69.62 0 1.53-.5 2.73-1.51.11-.07.2-.1.27-.1.13 0 .2.05.2.16 0 .26-.36.65-1.09 1.15-.99.68-2.05 1.02-3.18 1.02-.68 0-1.25-.15-1.69-.44-.44-.3-.66-.68-.66-1.14 0-.37.21-1.03.62-1.98l2.62-5.9c.63-1.43.95-2.39.95-2.9 0-.75-.38-1.12-1.15-1.12-1.01 0-2.19.72-3.54 2.16-1.03 1.09-1.97 2.62-2.82 4.59l-2.69 6.23c-.11.33-.25.49-.43.49h-2.23c-.15 0-.23-.05-.23-.16 0-.04.03-.11.1-.2l.23-.49 5.02-12.01c.07-.11.12-.21.16-.29-.02-.15-.29-.24-.82-.26-.66-.02-.98-.14-.98-.36 0-.15.12-.23.36-.23.15 0 .39.02.72.07.33.04.58.07.75.07 1.18 0 1.96-.09 2.33-.26.15-.07.25-.1.29-.1.13 0 .2.07.2.2 0 .07-.01.12-.03.16l-1.21 3.08c.17-.2.43-.48.75-.84 1.62-1.74 3.18-2.61 4.69-2.61.87 0 1.58.25 2.13.74.55.49.82 1.13.82 1.89Z" fill="#ffffff" data-color="1"/>
        <path d="M200.23 106.55c0 .53-.28 1.44-.85 2.74l-2.66 6.03c-.31.7-.46 1.18-.46 1.42 0 .46.26.69.77.69.62 0 1.53-.5 2.73-1.51.11-.07.2-.1.27-.1.13 0 .2.05.2.16 0 .26-.36.65-1.09 1.15-.99.68-2.05 1.02-3.18 1.02-.68 0-1.25-.15-1.69-.44-.44-.3-.66-.68-.66-1.14 0-.37.21-1.03.62-1.98l2.62-5.9c.63-1.43.95-2.39.95-2.9 0-.75-.38-1.12-1.15-1.12-1.01 0-2.19.72-3.54 2.16-1.03 1.09-1.97 2.62-2.82 4.59l-2.69 6.23c-.11.33-.25.49-.43.49h-2.23c-.15 0-.23-.05-.23-.16 0-.04.03-.11.1-.2l.23-.49 5.02-12.01c.07-.11.12-.21.16-.29-.02-.15-.29-.24-.82-.26-.66-.02-.98-.14-.98-.36 0-.15.12-.23.36-.23.15 0 .39.02.72.07.33.04.58.07.75.07 1.18 0 1.96-.09 2.33-.26.15-.07.25-.1.29-.1.13 0 .2.07.2.2 0 .07-.01.12-.03.16l-1.21 3.08c.17-.2.43-.48.75-.84 1.62-1.74 3.18-2.61 4.69-2.61.87 0 1.58.25 2.13.74.55.49.82 1.13.82 1.89Z" fill="#ffffff" data-color="1"/>
        <path d="M216.57 109.29c0 2.56-1.17 4.86-3.51 6.92-1.84 1.62-3.75 2.43-5.74 2.43-1.36 0-2.47-.47-3.34-1.41-.88-.94-1.31-2.15-1.31-3.64 0-1.27.36-2.57 1.08-3.9.72-1.33 1.68-2.47 2.89-3.41 1.88-1.46 3.69-2.2 5.44-2.2 1.33 0 2.42.48 3.25 1.44.83.96 1.25 2.22 1.25 3.77Zm-2.52-2.13c0-1.66-.74-2.49-2.23-2.49-1.81 0-3.39 1.3-4.72 3.9-1.27 2.49-1.9 4.83-1.9 7.02 0 1.64.73 2.46 2.2 2.46 1.84 0 3.37-1.18 4.59-3.54 1.38-2.67 2.07-5.12 2.07-7.35Z" fill="#ffffff" data-color="1"/>
        <path d="M232.28 105.85c0 1.62-.31 3.29-.93 5.02s-1.47 3.26-2.54 4.59c-1.64 2.03-3.32 3.05-5.05 3.05-.94 0-1.72-.26-2.33-.77-.61-.51-.92-1.18-.92-1.98 0-1.01.43-2.51 1.28-4.53l1.9-4.49c.26-.61.39-1.02.39-1.21 0-.46-.26-.69-.79-.69-.44 0-1.02.33-1.75.98-.73.65-1.26 1.31-1.59 1.97-.15.33-.32.5-.49.5-.2 0-.3-.08-.3-.23 0-.48.6-1.29 1.8-2.43 1.14-1.07 2.25-1.61 3.35-1.61.68 0 1.22.17 1.64.52.42.35.62.81.62 1.37 0 .61-.21 1.4-.62 2.36l-1.84 4.25c-.61 1.42-.92 2.62-.92 3.6 0 1.13.47 1.7 1.41 1.7 1.38 0 2.88-1.26 4.51-3.77s2.44-4.85 2.44-7.02c0-.72-.15-1.08-.46-1.08-.02 0-.13.03-.31.08-.19.05-.34.08-.48.08-.59 0-.89-.27-.89-.82 0-.35.14-.65.41-.9.27-.25.6-.38.97-.38.98 0 1.48.61 1.48 1.84Z" fill="#ffffff" data-color="1"/>
        <path d="M249.95 104.21c0 .07-.09.29-.26.69l-4.33 9.79c-.42.94-.62 1.65-.62 2.15 0 .57.28.85.85.85.85 0 1.71-.58 2.56-1.74.17-.24.31-.36.39-.36s.13.04.13.13c0 .24-.24.62-.72 1.15-.96 1.03-2.11 1.54-3.44 1.54-.68 0-1.23-.16-1.66-.49s-.64-.75-.64-1.28c0-.33.08-.71.23-1.15-1.38 2.01-2.97 3.02-4.79 3.02-1.14 0-2.07-.37-2.79-1.1-.72-.73-1.08-1.66-1.08-2.8 0-1.24.42-2.61 1.25-4.09.83-1.48 1.93-2.84 3.31-4.06 1.88-1.66 3.61-2.49 5.18-2.49s2.56.79 2.75 2.36l.82-1.74c.17-.35.33-.52.46-.52.04 0 .17.02.39.07.22.04.37.07.46.07.48 0 .85-.05 1.12-.15.09-.05.16-.08.23-.08.13 0 .2.08.2.23Zm-4.13 2.71c0-.67-.2-1.22-.61-1.63-.4-.41-.92-.62-1.56-.62-1.09 0-2.14.64-3.15 1.93-1.16 1.46-2.09 3-2.79 4.62-.7 1.62-1.05 3.04-1.05 4.26 0 1.48.61 2.22 1.84 2.22.7 0 1.46-.38 2.28-1.14.82-.76 1.5-1.72 2.05-2.87l2.56-5.48c.28-.61.43-1.03.43-1.27Z" fill="#ffffff" data-color="1"/>
        <path d="M261.77 104.38c0 .31-.46.47-1.38.49h-1.84l-4.43 9.94c-.48 1.07-.72 1.75-.72 2.03 0 .46.34.69 1.02.69.98 0 1.86-.52 2.62-1.55.17-.21.31-.32.39-.32.17 0 .26.08.26.23 0 .28-.36.74-1.08 1.38-.83.72-1.83 1.08-2.98 1.08-.79 0-1.43-.2-1.92-.59-.49-.39-.74-.89-.74-1.5 0-.39.25-1.12.75-2.19l4.3-9.19h-1.34c-.37 0-.56-.07-.56-.22 0-.27.15-.4.46-.4h.3c.11-.02.28-.03.52-.03.31 0 .6-.01.89-.03l.56-1.41c.2-.48.35-.72.46-.72s.28.02.51.05c.23.03.41.05.54.05.24 0 .59-.1 1.05-.3.09-.04.16-.06.23-.06.11 0 .16.04.16.13l-.36.78-.72 1.55h2.03c.11 0 .24-.02.39-.07.15-.04.24-.07.26-.07.24 0 .36.09.36.26Z" fill="#ffffff" data-color="1"/>
        <path d="M268.81 104.21c0 .07-.06.2-.16.39-.15.26-.4.8-.75 1.6l-3.77 8.6c-.5 1.16-.75 1.88-.75 2.16 0 .59.31.88.92.88.42 0 .89-.15 1.43-.44.54-.29.95-.64 1.23-1.05.2-.26.35-.39.46-.39.13 0 .2.07.2.19 0 .26-.31.65-.92 1.17-.92.78-1.96 1.17-3.12 1.17-.77 0-1.39-.2-1.89-.59-.49-.39-.74-.89-.74-1.5 0-.55.27-1.43.82-2.65l3.41-7.59c.11-.37.24-.65.39-.85.07-.09.1-.16.1-.23 0-.2-.48-.33-1.44-.39-.18-.04-.26-.12-.26-.23 0-.2.09-.3.26-.3.02 0 .19.02.49.07.31.04.8.07 1.48.07.92 0 1.56-.08 1.93-.23.22-.09.37-.13.46-.13.15 0 .23.09.23.26Zm2.26-6.13c0 .92-.43 1.38-1.28 1.38-.44 0-.8-.14-1.08-.41-.28-.27-.43-.62-.43-1.03 0-.9.5-1.34 1.51-1.34.85 0 1.28.47 1.28 1.41Z" fill="#ffffff" data-color="1"/>
        <path d="M284.84 106.55c0 .53-.28 1.44-.85 2.74l-2.66 6.03c-.31.7-.46 1.18-.46 1.42 0 .46.26.69.77.69.62 0 1.53-.5 2.73-1.51.11-.07.2-.1.27-.1.13 0 .2.05.2.16 0 .26-.36.65-1.09 1.15-.99.68-2.05 1.02-3.18 1.02-.68 0-1.25-.15-1.69-.44-.44-.3-.66-.68-.66-1.14 0-.37.21-1.03.62-1.98l2.62-5.9c.63-1.43.95-2.39.95-2.9 0-.75-.38-1.12-1.15-1.12-1.01 0-2.19.72-3.54 2.16-1.03 1.09-1.97 2.62-2.82 4.59l-2.69 6.23c-.11.33-.25.49-.43.49h-2.23c-.15 0-.23-.05-.23-.16 0-.04.03-.11.1-.2l.23-.49 5.02-12.01c.07-.11.12-.21.16-.29-.02-.15-.29-.24-.82-.26-.66-.02-.98-.14-.98-.36 0-.15.12-.23.36-.23.15 0 .39.02.72.07.33.04.58.07.75.07 1.18 0 1.96-.09 2.33-.26.15-.07.25-.1.29-.1.13 0 .2.07.2.2 0 .07-.01.12-.03.16l-1.21 3.08c.17-.2.43-.48.75-.84 1.62-1.74 3.18-2.61 4.69-2.61.87 0 1.58.25 2.13.74.55.49.82 1.13.82 1.89Z" fill="#ffffff" data-color="1"/>
        <path d="M303.17 105.26c0 .7-.33 1.05-.98 1.05-.61 0-.92-.29-.92-.89 0-.07.01-.14.03-.21.02-.08.04-.18.07-.31 0-.11-.07-.16-.2-.16-.22 0-.53.24-.93.71s-.61.83-.61 1.07c0 .11.04.24.13.39.26.61.39 1.28.39 2 0 1.55-.52 2.87-1.56 3.95s-2.42 1.62-4.15 1.62c-1.27 0-2.41-.36-3.41-1.08-1.68.59-2.53 1.25-2.53 1.97 0 .46.33.74.98.85 1.22.2 1.91.27 2.07.23h2.72c1.25 0 2.14.07 2.69.2 1.62.39 2.43 1.57 2.43 3.54 0 1.75-.62 3.26-1.87 4.53-1.33 1.36-3.18 2.03-5.54 2.03-1.71 0-3.21-.39-4.53-1.18-1.6-.96-2.39-2.09-2.39-3.38 0-.9.4-1.64 1.21-2.23.37-.26 1.19-.63 2.46-1.11-1.27-.52-1.9-1.29-1.9-2.3 0-1.66 1.27-2.85 3.8-3.57-.7-.92-1.05-1.85-1.05-2.79 0-1.68.62-3.13 1.85-4.35 1.23-1.21 2.71-1.82 4.41-1.82 1.31 0 2.43.59 3.34 1.77.81-1.25 1.66-1.87 2.56-1.87s1.41.45 1.41 1.34Zm-4.72 16.13c0-.55-.17-1.03-.52-1.46-.35-.43-.79-.69-1.31-.8-.72-.15-1.87-.22-3.44-.2h-3.71c-1.36.68-2.03 1.74-2.03 3.18 0 1.21.43 2.19 1.3 2.93.86.74 2.01 1.11 3.43 1.11 1.68 0 3.15-.48 4.41-1.43 1.26-.95 1.89-2.06 1.89-3.33Zm-.59-14.55c0-1.54-.63-2.3-1.9-2.3-1.05 0-1.99.92-2.82 2.76-.72 1.58-1.08 3.06-1.08 4.44s.7 2.14 2.1 2.14c1.03 0 1.91-.84 2.66-2.53.7-1.58 1.05-3.08 1.05-4.51Z" fill="#ffffff" data-color="1"/>
        <path d="M171.81 0v84.8h-15.75V48.46h-43.85V84.8H96.46V0h15.75v35.01h43.85V0h15.75Z" fill="#ffffff" data-color="1"/>
        <path d="M188.56 0h37.07c9.04 0 17.08 1.76 24.11 5.27 7.03 3.51 12.48 8.48 16.35 14.9 3.88 6.42 5.81 13.83 5.81 22.23s-1.93 15.81-5.81 22.23c-3.87 6.42-9.33 11.39-16.35 14.9-7.03 3.51-15.06 5.27-24.11 5.27h-37.07V0Zm36.34 71.47c6.22 0 11.69-1.19 16.41-3.58 4.73-2.38 8.36-5.77 10.9-10.17 2.55-4.4 3.82-9.51 3.82-15.33s-1.27-10.92-3.82-15.32c-2.54-4.4-6.17-7.79-10.9-10.18-4.73-2.38-10.2-3.58-16.41-3.58h-20.59v58.15h20.59Z" fill="#ffffff" data-color="1"/>
        <path d="M287.2 0h14.3v84.8h-14.3V0Z" fill="#ffffff" data-color="1"/>
        <path d="M69.65 60.81h-1.42c1.87.94 3.45 2.84 3.93 4.96.38-.52.61-1.15.61-1.84 0-1.72-1.4-3.12-3.12-3.12Z" fill="#ffffff" data-color="1"/>
        <path d="M2 0v84.8h78.06V0H2Zm31.09 77.05-3.7-2.01c-1.36-.61-2.3-2.91-2.3-3.55h2.25s-1.76-1.06-2.3-3.42c-.53-2.35-3.13-3.77-5.67-3.88 1.57.69 2.66 2.25 2.66 4.08 0 3.4-3.39 4.32-3.39 4.32l5.79 3.08v1.39h-9.29L11.58 74v-1.77l-1.83-1.08v-2.57a5.347 5.347 0 0 1-2.69-4.63c0-2.95 2.4-5.35 5.35-5.35h5.32c1.52 0 2.76-1.24 2.76-2.76s-1.24-2.76-2.76-2.76h-5.47v-4.06c.96-.03 1.76.4 1.76.4a4.904 4.904 0 0 1 4.75-3.69v5.23c2.25.48 3.94 2.48 3.94 4.88 0 2.02-1.21 3.75-2.93 4.54 2.03-.44 4.56-1.79 5.14-5.74 0 0 3.25.47 4.73-2.33 0 0-3.44.96-5.88-.11-1.67-.73-2.71-2.54-2.71-4.48h2.34s-2.34-1.09-2.34-4.26h3.79s-3.79-.91-3.79-4.9V33.5s2.13-.08 3.61 1.47v-3.76s4.89 1.84 6.79 2.57c3.23 1.24 2.98 2.92 2.98 2.92h1.35l.83 1.09-1.63 2.81c.04.14.06.29.06.44 0 .99-.8 1.79-1.79 1.79-2.08 0-3.95-1.08-3.95-1.08.81 1.65 2.3 2.9 4.11 3.39 2.06 4.05 5.7 5.36 5.7 11.33 0 5.1-4.48 7.46-4.48 7.46v8.64s5.76 3.12 5.76 3.14v1.35h-7.32Zm39.22-8.48v2.57l-1.83 1.08v1.77l-5.56 3.06h-9.29v-1.39l5.79-3.08s-3.39-.93-3.39-4.32c0-1.82 1.09-3.39 2.66-4.08-2.54.12-5.14 1.53-5.67 3.88-.53 2.36-2.3 3.42-2.3 3.42h2.25c0 .64-.95 2.94-2.3 3.55l-3.7 2.01h-7.32v-1.35s5.77-3.12 5.77-3.14v-8.64s-4.48-2.35-4.48-7.46c0-5.97 3.64-7.28 5.7-11.33 1.8-.49 3.29-1.75 4.11-3.39 0 0-1.87 1.08-3.95 1.08-.99 0-1.79-.8-1.79-1.79 0-.15.02-.3.06-.44l-1.63-2.81.83-1.09h1.35s-.25-1.68 2.98-2.92c1.9-.73 6.79-2.57 6.79-2.57v3.76C58.87 33.4 61 33.48 61 33.48v5.06c0 3.99-3.79 4.9-3.79 4.9H61c0 3.18-2.34 4.26-2.34 4.26H61c0 1.95-1.05 3.75-2.71 4.48-2.44 1.08-5.88.11-5.88.11 1.48 2.8 4.73 2.33 4.73 2.33.58 3.94 3.11 5.3 5.14 5.74a4.976 4.976 0 0 1-2.93-4.54c0-2.39 1.69-4.39 3.94-4.88v-5.23c2.29 0 4.21 1.57 4.75 3.69 0 0 .8-.43 1.76-.4v4.06h-5.47c-1.52 0-2.76 1.24-2.76 2.76s1.24 2.76 2.76 2.76h5.32c2.95 0 5.35 2.4 5.35 5.35 0 1.98-1.08 3.71-2.69 4.63Z" fill="#ffffff" data-color="1"/>
        <path d="M9.3 63.93c0 .69.23 1.33.61 1.84.48-2.13 2.06-4.02 3.93-4.96h-1.42c-1.72 0-3.12 1.4-3.12 3.12Z" fill="#ffffff" data-color="1"/>
    </g>
</svg>
